<?xml version="1.0" encoding="UTF-8"?>
<svg width="1001px" height="1000px" viewBox="0 0 1001 1000" version="1.1" xmlns="http://www.w3.org/2000/svg" xmlns:xlink="http://www.w3.org/1999/xlink">
    <!-- Generator: Sketch 55.1 (78136) - https://sketchapp.com -->
    <title>编组 122</title>
    <desc>Created with Sketch.</desc>
    <g id="上传" stroke="none" stroke-width="1" fill="none" fill-rule="evenodd">
        <g id="3" transform="translate(-5560.000000, -269.000000)">
            <g id="编组-122" transform="translate(5560.777778, 269.000000)">
                <rect id="矩形备份-104" x="0" y="0" width="1000" height="1000"></rect>
                <g id="Others" transform="translate(107.000000, 25.000000)" fill-rule="nonzero">
                    <g id="map__x26__locator">
                        <polygon id="路径" fill="#2A3E4F" opacity="0.4" points="271.25 900.767596 508.1925 949.34058 748.75 928.054412 511.9425 720.480507"></polygon>
                        <polygon id="路径" fill="#00CA77" points="511.39 803.801722 722.5 890.714822 722.5 431.058659 461.25 382.700787 510 804.209436"></polygon>
                        <polygon id="路径" fill="#2A3E4F" opacity="0.4" points="270.625 900.767596 0 950.591236 0 367.307711 262.8125 428.702423"></polygon>
                        <polygon id="路径" fill="#00CA77" points="57.5 418.552097 57.5 819.997719 269.575 874.823984 270 874.698919 328.75 465.244094"></polygon>
                        <polygon id="路径" fill="#00AF67" points="270 455.238845 270 874.698919 510 804.209436 510 376.029787"></polygon>
                        <polygon id="路径" fill="#F4C342" points="57.5 340.521157 57.5 691.965546 311.25 694.114173 270 394.50448 61.9425 340.721262"></polygon>
                        <polygon id="路径" fill="#F4C342" points="442.5 515.270341 722.5 557.792651 722.5 412.711533 510 325.225633"></polygon>
                        <polygon id="路径" fill="#F89B36" points="270 394.50448 270 672.853018 510 515.270341 510 325.225633 509.235 324.655333"></polygon>
                        <rect id="矩形" fill="#ECF0F1" x="57.5" y="672.853018" width="212.5" height="60.0314961"></rect>
                        <polygon id="路径" fill="#BDC3C7" points="510 474.138761 270 672.853018 270 732.884514 330.625 683.901315 510.625 536.949215"></polygon>
                        <polygon id="路径" fill="#ECF0F1" points="510 536.669068 722.5 583.676231 722.5 521.215961 510 474.138761"></polygon>
                        <polygon id="路径" fill="#ECF0F1" points="58.75 339.57316 181.25 700.367454 236.25 690.362205 96.25 342.67979"></polygon>
                        <g id="编组" transform="translate(32.500000, 297.656168)">
                            <polygon id="路径" fill="#ECF0F1" points="236.8625 564.19601 37.5 512.65647 37.5 57.7653071 237.5 109.770092 237.5 71.0147585 0 9.62004724 0 541.714215 237.5 603.111428 237.5 564.005911"></polygon>
                            <polygon id="路径" fill="#BDC3C7" points="237.6925 109.820118 475.6675 40.338664 477.5 41.0940604 477.5 0.522774278 237.5 71.0147585 237.5 109.770092"></polygon>
                            <polygon id="路径" fill="#BDC3C7" points="237.5 564.005911 237.5 603.111428 477.5 532.621945 477.5 493.518929"></polygon>
                            <polygon id="路径" fill="#ECF0F1" points="477.5 0.522774278 477.5 41.0940604 677.5 123.434761 677.5 574.388858 479.5825 492.908609 477.5 493.518929 477.5 532.621945 715 630.398244 715 98.3015748"></polygon>
                        </g>
                        <path d="M391.1075,0.757897638 C390.955,0.757897638 390,0.757897638 390,0.757897638 C287.5,1.00802887 207.035,83.3612362 207.035,184.927024 C207.035,286.64289 374.09,596.085241 374.09,596.085241 C378.5625,604.359583 382.4975,608.564289 389.9975,608.771898 C394.9975,608.989512 403.0925,604.779803 407.8,596.085241 C407.8,596.085241 575.18,286.64289 575.18,184.927024 C575.18,83.2136588 492.77,0.757897638 391.1075,0.757897638 Z M390.9475,290.16974 C390.795,290.16974 390,290.157234 390,290.157234 C327.5,289.909604 278.6975,239.955895 278.6975,178.351073 C278.6975,116.746252 327.5,66.790042 390,66.5449134 C390,66.5449134 390.9575,66.5299055 391.1075,66.5299055 C452.8275,66.5299055 503.1975,116.593672 503.1975,178.348572 C503.1975,240.103472 452.665,290.16974 390.9475,290.16974 Z" id="形状" fill="#236CE4"></path>
                        <path d="M391.1075,0.757897638 C390.955,0.757897638 390,0.757897638 390,0.757897638 L390,66.5474147 C390,66.5474147 390.9575,66.5324068 391.1075,66.5324068 C452.8275,66.5324068 503.1975,116.596173 503.1975,178.351073 C503.1975,240.105974 452.665,290.16974 390.9475,290.16974 C390.795,290.16974 390,290.157234 390,290.157234 L390,608.771898 C395,608.989512 403.095,604.779803 407.8025,596.085241 C407.8025,596.085241 575.1825,286.64289 575.1825,184.927024 C575.1825,83.2136588 492.77,0.757897638 391.1075,0.757897638 Z" id="路径" fill="#0D439B"></path>
                    </g>
                </g>
            </g>
        </g>
    </g>
</svg>